<?xml version="1.0" standalone="no"?>
<!DOCTYPE svg PUBLIC "-//W3C//DTD SVG 20010904//EN"
 "http://www.w3.org/TR/2001/REC-SVG-20010904/DTD/svg10.dtd">
<svg version="1.0" xmlns="http://www.w3.org/2000/svg"
 width="16.000000pt" height="16.000000pt" viewBox="0 0 16.000000 16.000000"
 preserveAspectRatio="xMidYMid meet">
<metadata>
Created by potrace 1.11, written by Peter Selinger 2001-2013
</metadata>
<g transform="translate(0.000000,16.000000) scale(0.006154,-0.006154)"
fill="#000000" stroke="none">
<path d="M1 2343 c0 -143 5 -265 10 -275 12 -22 49 -47 78 -53 23 -4 51 -28
51 -43 0 -5 7 -15 16 -23 12 -10 20 -10 35 -1 17 11 19 9 19 -10 0 -18 2 -20
9 -9 8 12 13 12 37 -4 23 -15 26 -15 21 -2 -4 11 -2 14 9 10 8 -3 14 1 14 9 0
8 9 23 19 32 18 16 20 16 32 -2 26 -37 118 -36 141 1 6 9 12 9 28 -1 17 -10
25 -10 36 -1 11 9 17 9 29 -1 12 -10 18 -8 33 10 11 14 31 24 51 25 19 2 37 8
40 14 5 8 15 5 31 -9 18 -16 25 -17 32 -8 6 10 8 10 8 -1 0 -10 3 -11 13 -2
10 8 19 5 37 -11 l23 -22 -6 23 c-4 17 -2 21 9 17 8 -3 14 -1 14 5 0 6 7 17
15 26 16 15 19 14 65 -12 26 -15 72 -20 83 -8 4 3 0 14 -9 24 -15 16 -13 17
28 12 24 -3 46 -10 49 -16 4 -6 14 -5 26 1 11 6 25 7 33 2 10 -6 21 -1 37 16
13 14 23 21 23 15 0 -11 49 -4 66 10 15 12 24 -19 14 -46 -9 -23 -65 -87 -74
-85 -13 5 -69 -10 -63 -17 11 -11 -14 -33 -38 -33 -21 0 -22 2 -12 24 7 13 16
22 22 19 5 -3 5 0 -2 7 -9 10 -26 -2 -80 -58 -89 -92 -136 -112 -153 -67 -9
23 -106 95 -129 95 -5 0 -11 5 -13 11 -2 7 -26 12 -58 12 -94 -1 -94 -1 -79
-19 10 -13 10 -17 -2 -25 -23 -14 -30 -11 -27 14 2 17 -1 21 -17 19 -11 -2
-23 -8 -26 -13 -3 -5 -13 -7 -23 -3 -9 3 -16 3 -15 -2 4 -22 -2 -27 -13 -12
-29 37 -125 11 -112 -30 5 -13 4 -14 -4 -3 -14 20 -32 4 -32 -30 0 -24 4 -29
25 -29 14 0 29 8 34 19 6 11 24 20 45 23 29 3 33 2 23 -10 -6 -8 -16 -24 -22
-36 -7 -11 -17 -20 -24 -18 -8 2 -10 -4 -6 -18 3 -11 2 -20 -3 -20 -5 0 -23
-13 -38 -29 -31 -30 -90 -48 -96 -29 -3 8 -12 8 -34 1 -18 -6 -38 -7 -53 -1
-21 7 -28 4 -47 -19 l-23 -28 -23 26 c-58 67 -100 32 -106 -89 -2 -59 0 -78
14 -93 19 -21 40 -26 28 -7 -5 8 -2 9 9 5 11 -4 17 -1 17 8 0 9 6 12 15 9 13
-5 13 -8 0 -21 -17 -16 -20 -33 -6 -33 5 0 15 14 23 30 7 17 15 30 18 31 25 4
43 9 73 24 20 9 40 14 46 11 5 -3 21 -2 35 4 14 5 26 6 26 1 0 -5 8 -7 19 -4
17 4 53 -29 63 -58 4 -11 38 -2 38 10 0 4 -11 14 -25 21 -14 8 -22 16 -17 19
5 3 11 14 15 24 10 26 38 33 53 13 19 -27 134 -25 134 2 0 10 6 12 18 7 23
-10 102 -13 102 -5 0 13 74 30 84 20 17 -17 26 -11 26 18 0 22 2 24 11 12 7
-11 12 -12 15 -3 3 7 11 10 19 7 8 -4 20 7 30 26 17 32 12 57 -5 30 -7 -12
-11 -7 -16 17 -4 21 -11 30 -18 26 -6 -4 -4 4 5 17 20 31 39 37 39 13 0 -11 3
-14 8 -7 4 6 15 10 25 8 10 -1 17 4 17 14 1 15 2 15 11 -1 5 -9 7 -22 3 -28
-4 -8 -1 -8 14 0 12 6 23 7 26 2 6 -10 20 -9 48 4 10 4 16 11 13 15 -3 4 8 13
25 18 27 10 31 8 61 -29 17 -22 39 -39 50 -39 11 0 30 -11 43 -25 32 -34 58
-31 97 10 35 37 54 44 62 23 4 -10 6 -10 6 0 1 6 6 12 12 12 5 0 7 -4 4 -10
-9 -14 19 -12 33 2 8 8 12 8 12 1 0 -20 32 -24 45 -6 11 14 18 16 41 8 32 -11
46 -45 19 -45 -9 0 -13 -5 -10 -11 4 -6 -1 -16 -10 -23 -16 -11 -14 -13 17
-12 31 1 34 3 24 18 -15 24 3 37 20 14 19 -26 18 -33 -7 -41 -15 -5 -17 -10
-9 -20 6 -7 7 -21 3 -30 -5 -15 -3 -17 11 -12 10 4 28 7 42 7 18 0 25 7 32 32
7 29 36 56 30 28 -4 -16 33 -39 39 -24 2 6 16 9 32 6 17 -2 34 3 45 13 9 10
19 15 22 12 9 -9 43 25 38 38 -5 13 38 12 78 -1 13 -4 21 2 28 20 5 14 16 26
25 26 8 0 15 4 15 9 0 5 -11 9 -25 9 -31 -1 -36 3 -38 31 -1 14 -6 20 -15 16
-19 -7 -44 19 -30 33 6 6 6 12 -1 16 -6 4 -11 5 -11 2 0 -3 -11 -1 -25 4 -21
8 -25 7 -25 -9 0 -10 7 -24 15 -31 8 -7 15 -18 15 -24 0 -6 -5 -4 -10 4 -5 8
-10 11 -10 5 0 -5 -5 -3 -11 5 -9 13 -10 13 -8 0 4 -38 0 -44 -19 -27 -25 23
-35 21 -22 -4 9 -15 8 -24 -1 -35 -9 -11 -9 -18 -1 -26 9 -9 12 -9 12 1 0 7 5
11 11 9 20 -7 14 -21 -11 -25 -14 -1 -35 -8 -48 -15 -17 -9 -25 -9 -34 0 -9 9
-16 8 -28 -3 -15 -13 -19 -12 -41 11 l-24 27 23 -6 c16 -4 28 2 42 20 27 35
25 44 -7 38 -27 -6 -27 -5 -7 7 13 8 20 22 19 35 -1 14 5 25 17 29 30 9 21 31
-12 29 -21 -1 -38 6 -55 23 -22 21 -30 23 -82 18 -32 -2 -62 -5 -66 -5 -5 -1
-5 -7 -1 -13 6 -10 4 -10 -8 0 -16 13 -68 7 -68 -7 0 -8 -39 -6 -62 4 -9 4
-22 4 -28 0 -5 -3 -10 -2 -10 3 0 6 11 13 25 16 14 4 25 13 25 21 0 18 21 20
38 3 8 -8 15 -8 25 1 8 6 22 8 31 5 10 -4 25 1 37 12 11 10 29 19 39 21 38 6
45 8 52 18 4 6 11 10 15 10 19 1 45 23 35 29 -6 4 -9 13 -6 21 5 13 11 13 41
0 42 -18 43 -18 43 -5 0 6 -7 10 -15 10 -8 0 -15 4 -15 10 0 5 9 6 22 1 27
-10 58 18 58 53 0 28 3 30 42 40 24 5 28 3 34 -21 6 -21 2 -31 -21 -49 l-27
-22 22 -22 c12 -12 28 -19 37 -16 9 4 21 2 28 -4 9 -8 14 -5 18 10 5 21 11 22
88 5 22 -5 28 -2 33 19 3 15 13 26 21 26 8 0 15 5 15 10 0 6 -6 10 -12 9 -28
-3 -36 2 -42 26 -5 18 -12 24 -28 22 -24 -2 -32 11 -19 32 7 11 12 11 31 -2
21 -15 24 -14 49 9 26 24 81 33 81 13 0 -5 4 -8 9 -5 20 13 94 16 107 5 8 -6
14 -8 15 -3 0 5 4 -1 10 -14 8 -22 10 -22 26 -7 16 16 17 16 25 -4 4 -11 12
-21 18 -21 5 0 10 -7 10 -15 0 -8 7 -15 16 -15 11 0 14 8 12 33 -2 26 0 31 15
29 10 -2 25 2 33 9 8 6 31 12 52 13 29 1 36 5 34 19 -2 12 4 17 21 17 31 0 38
9 27 31 -8 14 -6 21 10 29 19 10 20 21 20 155 l0 145 -1300 0 -1300 0 1 -257z
m104 -143 c8 0 19 -10 26 -22 10 -19 9 -20 -7 -14 -11 4 -27 9 -37 11 -9 2
-22 7 -27 10 -15 9 0 27 17 21 8 -3 21 -6 28 -6z m1315 -1 c0 -6 9 -8 20 -4
11 4 20 2 20 -4 0 -13 -45 -25 -64 -18 -8 3 -16 1 -18 -4 -2 -6 -15 -8 -31 -4
-26 7 -27 9 -12 25 17 18 85 26 85 9z m64 -14 c-4 -8 -8 -15 -10 -15 -2 0 -4
7 -4 15 0 8 4 15 10 15 5 0 7 -7 4 -15z m-477 -32 c-15 -16 -17 -16 -17 -1 0
9 6 18 13 21 20 7 22 -2 4 -20z m-90 -66 c-26 -24 -46 -36 -56 -32 -14 6 -14
8 -1 18 8 7 15 18 16 25 1 6 2 19 3 27 2 25 41 34 61 16 16 -15 14 -19 -23
-54z m-887 3 c0 -5 -4 -10 -10 -10 -5 0 -10 5 -10 10 0 6 5 10 10 10 6 0 10
-4 10 -10z m344 -15 c8 -30 1 -45 -20 -45 -8 0 -20 -11 -26 -25 -7 -15 -18
-24 -27 -23 -24 5 -20 33 4 31 11 -1 14 0 8 3 -14 6 -17 42 -5 60 6 10 24 18
53 23 4 0 10 -10 13 -24z m1236 -65 c0 -5 -2 -10 -4 -10 -3 0 -8 5 -11 10 -3
6 -1 10 4 10 6 0 11 -4 11 -10z m-1130 -32 c0 -11 -12 -10 -30 2 -12 7 -10 9
8 7 12 0 22 -5 22 -9z m885 -38 c3 -6 -1 -7 -9 -4 -18 7 -21 14 -7 14 6 0 13
-4 16 -10z m-55 -60 c0 -5 -2 -10 -4 -10 -3 0 -8 5 -11 10 -3 6 -1 10 4 10 6
0 11 -4 11 -10z m-20 -59 c0 -5 -13 -11 -29 -14 -32 -7 -78 2 -62 12 15 10 91
11 91 2z m-456 -56 c-4 -8 -10 -15 -15 -15 -5 0 -9 7 -9 15 0 8 7 15 15 15 9
0 12 -6 9 -15z m-249 -5 c-3 -5 -13 -10 -21 -10 -8 0 -12 5 -9 10 3 6 13 10
21 10 8 0 12 -4 9 -10z m210 0 c-3 -5 -13 -10 -21 -10 -8 0 -14 5 -14 10 0 6
9 10 21 10 11 0 17 -4 14 -10z m-329 -29 c-4 -5 -13 -8 -21 -5 -11 5 -12 9 -2
19 13 15 33 3 23 -14z m2 -69 c3 -16 -4 -25 -25 -34 -15 -6 -31 -11 -35 -10
-4 1 -5 -5 -2 -13 4 -9 0 -15 -9 -15 -19 0 -31 16 -18 24 4 3 11 19 14 35 4
20 13 31 29 34 34 6 43 3 46 -21z m-338 -57 c11 -4 20 -10 20 -15 0 -15 -21
-23 -33 -11 -6 6 -21 11 -33 11 -24 0 -38 13 -27 24 6 6 37 2 73 -9z m-91 -89
c10 -12 8 -13 -8 -9 -12 3 -21 9 -21 14 0 14 16 11 29 -5z"/>
<path d="M996 1982 c-4 -4 -13 -7 -19 -7 -7 0 -11 -9 -10 -20 1 -11 0 -27 -3
-35 -4 -12 -8 -12 -21 5 -9 11 -13 13 -10 5 2 -8 0 -23 -5 -33 -8 -16 -7 -17
10 -8 11 6 22 8 26 6 3 -3 4 -2 1 2 -2 3 8 17 23 31 23 22 27 23 30 9 2 -9 8
-17 13 -17 6 0 7 9 4 20 -4 11 -3 20 2 19 21 -4 36 2 28 10 -15 13 -61 22 -69
13z"/>
<path d="M1145 1970 c-3 -5 -1 -10 4 -10 6 0 11 5 11 10 0 6 -2 10 -4 10 -3 0
-8 -4 -11 -10z"/>
<path d="M1400 1910 c0 -6 7 -10 15 -10 8 0 15 2 15 4 0 2 -7 6 -15 10 -8 3
-15 1 -15 -4z"/>
<path d="M1785 1910 c-10 -19 -14 -60 -5 -60 5 0 10 5 10 11 0 7 10 9 24 5 29
-7 37 2 30 31 -4 15 -13 20 -31 19 -14 0 -26 -3 -28 -6z"/>
<path d="M2002 1880 c-22 -14 -32 -27 -31 -42 1 -19 2 -20 6 -4 4 14 7 16 13
6 7 -11 11 -11 25 0 23 19 57 23 67 8 6 -10 10 -10 17 2 12 17 13 16 -30 34
-33 14 -38 13 -67 -4z"/>
<path d="M2420 1893 c-16 -6 -30 -23 -30 -36 0 -5 7 -1 16 7 8 9 22 16 30 16
8 0 14 5 14 10 0 11 -7 12 -30 3z"/>
<path d="M1810 1820 c-8 -5 -12 -11 -9 -14 2 -3 11 -1 19 4 8 5 12 11 9 14 -2
3 -11 1 -19 -4z"/>
<path d="M2500 1800 c-11 -11 -21 -20 -22 -19 -2 0 -16 -5 -32 -11 -21 -8 -44
-8 -83 0 -52 11 -55 11 -74 -14 -13 -17 -30 -26 -48 -26 -29 0 -91 26 -102 43
-4 5 -9 5 -13 -2 -4 -6 -15 -11 -26 -11 -18 0 -34 -23 -23 -34 13 -13 9 -57
-4 -52 -7 3 -13 1 -13 -4 0 -6 4 -10 10 -10 5 0 7 -7 4 -15 -5 -11 1 -15 19
-15 14 0 32 -6 40 -14 12 -13 17 -13 36 0 11 8 26 12 31 9 6 -3 10 -1 10 4 0
20 26 11 58 -20 18 -17 32 -26 32 -20 0 17 18 13 40 -9 11 -11 20 -24 20 -30
0 -5 7 -10 15 -10 12 0 14 8 10 31 -4 22 -2 30 7 26 7 -2 28 2 47 9 18 8 44
14 58 14 13 0 21 4 18 10 -3 5 1 21 10 34 9 14 14 33 11 43 -5 15 2 22 29 32
31 11 35 16 35 47 0 37 -2 39 -30 24 -13 -7 -21 -7 -25 0 -9 15 -23 12 -45
-10z"/>
<path d="M2045 1733 c2 -16 4 -30 4 -33 1 -3 5 1 10 9 10 15 3 51 -9 51 -5 0
-7 -12 -5 -27z"/>
<path d="M1760 1710 c0 -5 5 -10 11 -10 5 0 7 5 4 10 -3 6 -8 10 -11 10 -2 0
-4 -4 -4 -10z"/>
<path d="M1480 1690 c0 -6 7 -10 15 -10 8 0 15 2 15 4 0 2 -7 6 -15 10 -8 3
-15 1 -15 -4z"/>
<path d="M2540 1670 c0 -5 5 -10 11 -10 5 0 7 5 4 10 -3 6 -8 10 -11 10 -2 0
-4 -4 -4 -10z"/>
<path d="M1430 1619 c-19 -7 -14 -7 19 -4 36 5 42 3 38 -10 -8 -18 10 -19 42
-1 23 13 23 13 -15 19 -46 8 -51 8 -84 -4z"/>
<path d="M1441 1527 c-7 -19 -12 -50 -12 -68 0 -81 -8 -201 -14 -207 -11 -11
-25 22 -18 43 4 11 6 29 5 40 -1 11 -2 38 -2 60 -1 37 -2 39 -15 21 -8 -11
-15 -31 -15 -45 0 -13 -3 -22 -6 -19 -3 3 -5 25 -5 49 -1 44 -18 109 -29 109
-16 0 -49 -42 -55 -70 -4 -16 -13 -30 -20 -30 -14 0 -35 -50 -35 -86 0 -13 -4
-26 -10 -29 -5 -3 -10 -16 -10 -28 0 -15 -3 -18 -11 -10 -6 6 -15 46 -21 89
-10 76 -28 124 -28 74 0 -43 -20 -7 -34 60 -20 103 -42 90 -67 -40 -7 -36 -18
-74 -26 -85 -7 -11 -13 -29 -13 -42 0 -12 -4 -24 -9 -27 -5 -4 -7 33 -5 89 3
52 3 95 -1 95 -3 0 -10 -12 -16 -27 -8 -22 -12 -24 -19 -13 -7 11 -15 1 -34
-40 -14 -30 -25 -50 -25 -44 -2 35 -130 121 -150 101 -14 -14 -14 -37 -1 -37
22 0 -12 -42 -46 -56 -37 -16 -47 -29 -13 -19 21 7 20 6 -2 -25 -23 -30 -24
-40 -25 -193 0 -132 -4 -169 -18 -201 -13 -29 -14 -41 -6 -50 6 -6 10 -6 9 -1
-4 15 24 85 34 85 4 0 6 -8 3 -18 -21 -64 -38 -140 -37 -159 0 -13 -4 -23 -9
-23 -5 0 -6 7 -3 17 4 10 2 14 -4 10 -13 -8 -15 -87 -3 -87 5 0 -1 -10 -13
-23 -13 -14 -31 -21 -44 -19 -18 3 -26 -5 -44 -42 -15 -34 -27 -46 -43 -46
-15 0 -17 3 -7 9 16 10 32 89 20 97 -5 3 -9 -1 -9 -9 0 -8 -7 -18 -16 -21 -14
-5 -16 0 -11 36 3 24 3 34 0 24 -4 -15 -7 -16 -14 -5 -14 21 -31 -9 -24 -41 4
-14 9 -51 12 -82 3 -33 10 -55 15 -52 5 3 7 11 5 18 -3 6 6 12 19 12 13 1 24
-2 24 -7 0 -5 -6 -9 -12 -9 -9 0 -8 -3 2 -10 9 -5 14 -23 13 -47 l-2 -38 13
34 c8 23 15 31 20 23 10 -16 58 -11 72 8 6 8 14 27 18 42 3 16 13 28 22 28 11
0 13 -6 9 -20 -3 -11 -2 -28 4 -37 10 -17 10 -17 11 0 0 10 14 35 31 56 36 46
32 82 -12 108 -32 19 -39 43 -13 43 13 0 14 3 4 15 -7 8 -10 22 -6 30 3 8 1
15 -4 15 -6 0 -10 5 -10 10 0 6 15 10 34 10 19 0 38 5 41 10 3 6 10 10 16 10
5 0 9 -4 9 -10 0 -5 -6 -10 -14 -10 -8 0 -17 -13 -20 -30 -3 -16 -9 -43 -12
-59 -3 -16 0 -32 5 -36 6 -3 11 -15 11 -27 0 -17 3 -18 15 -8 26 21 36 6 13
-20 -44 -48 -80 -110 -74 -125 8 -22 24 -18 28 8 2 14 9 21 21 21 9 -1 17 2
17 6 0 5 9 6 20 3 23 -6 23 -4 10 -37 -7 -20 -6 -24 5 -20 8 3 14 9 13 12 -5
44 29 67 69 47 14 -7 48 -11 84 -8 57 3 59 3 50 -15 -15 -29 -41 -35 -58 -15
-13 17 -14 16 -10 -5 3 -14 0 -25 -7 -28 -8 -3 -11 -15 -8 -30 5 -27 25 -34
20 -7 -2 10 4 19 15 21 10 2 17 -3 17 -12 0 -11 8 -13 35 -9 24 4 35 2 35 -7
0 -10 3 -10 15 0 12 10 15 9 15 -4 0 -10 5 -14 10 -11 6 4 10 30 8 58 l-3 52
-32 -3 c-19 -2 -33 1 -33 7 0 10 16 15 47 14 6 0 14 10 17 23 6 23 26 34 26
14 0 -5 11 -10 25 -10 24 0 25 -3 27 -62 1 -74 1 -76 -8 -106 -5 -18 -3 -21
10 -16 12 5 15 2 10 -9 -4 -12 2 -18 23 -23 15 -4 34 -12 42 -18 9 -7 12 -7 9
-1 -4 6 -3 17 2 25 7 12 12 10 29 -9 14 -16 27 -21 48 -18 l28 4 -27 2 c-50 2
-29 21 25 22 28 1 66 5 82 10 18 5 -1 5 -50 2 -77 -6 -79 -5 -65 13 11 15 11
17 0 6 -8 -6 -18 -12 -22 -12 -9 0 -11 163 -2 208 l6 31 28 -27 c25 -24 29
-36 33 -102 l4 -75 37 1 c21 1 43 7 49 14 10 10 8 12 -6 6 -13 -4 -17 -2 -14
6 2 8 19 13 41 12 32 -1 34 0 19 12 -31 23 -59 17 -76 -18 -14 -29 -17 -31
-23 -13 -5 11 -3 20 4 23 15 5 16 23 1 19 -6 -1 -14 4 -16 10 -3 9 17 12 81
11 82 -2 86 -3 86 -25 0 -14 6 -23 15 -23 8 0 15 4 15 9 0 5 19 22 43 38 66
45 74 49 53 25 -19 -22 -19 -22 1 -22 12 0 23 7 27 15 3 8 13 15 22 15 14 0
15 -2 3 -17 -12 -15 -12 -16 1 -8 8 4 22 14 31 22 9 7 30 15 48 16 21 1 30 6
26 15 -3 8 -5 15 -5 17 0 2 -17 7 -37 11 -34 6 -35 8 -14 15 12 5 21 15 19 21
-6 18 -87 33 -101 19 -20 -20 -23 -11 -19 49 l4 61 -23 -11 c-21 -10 -24 -17
-21 -55 2 -25 8 -45 13 -45 5 0 9 -4 9 -10 0 -5 -5 -9 -12 -7 -6 1 -12 -11
-13 -26 -3 -37 -35 -61 -50 -37 -8 14 -62 13 -71 -1 -4 -8 -11 -4 -18 10 l-12
22 -24 -26 c-16 -17 -34 -25 -58 -25 -39 0 -37 12 3 16 13 1 39 13 57 27 26
19 42 23 76 19 26 -2 42 0 42 7 0 6 -6 8 -14 5 -11 -4 -13 3 -9 38 3 24 10 46
15 49 5 3 9 10 8 15 -1 5 23 18 53 29 31 11 59 24 64 29 8 9 -1 7 -79 -18
l-48 -15 15 36 c18 43 81 123 97 123 6 0 8 3 5 7 -8 8 11 33 25 33 6 0 5 -7
-2 -15 -20 -24 -4 -29 19 -6 27 27 27 28 -10 33 -25 4 -32 1 -39 -18 -10 -26
-30 -38 -77 -49 -28 -5 -32 -4 -27 9 3 9 10 13 15 10 5 -3 9 10 9 28 0 19 6
40 13 47 10 11 8 12 -10 6 -44 -13 -22 6 42 36 36 18 65 33 65 34 0 2 -19 1
-42 -2 -27 -4 -39 -3 -35 4 4 6 -2 13 -13 16 -16 4 -20 14 -20 47 0 24 4 39
10 35 5 -3 7 -12 4 -19 -3 -7 2 -16 10 -19 10 -4 16 -1 16 8 0 19 26 19 34 0
3 -9 12 -12 21 -8 14 5 14 8 3 15 -10 7 -10 11 5 22 9 7 17 18 17 25 0 6 10
21 21 32 23 23 45 141 28 147 -5 2 -9 14 -9 26 0 34 -63 29 -120 -9 -25 -17
-51 -30 -59 -30 -8 0 -18 -10 -22 -23 -6 -15 -5 -21 1 -17 6 3 10 -3 10 -14 0
-25 -4 -26 -25 -5 -13 14 -15 29 -9 87 5 51 4 68 -4 63 -9 -5 -10 6 -5 40 8
59 -14 53 -23 -7 -11 -64 -20 -53 -20 23 1 79 -15 101 -33 45z m-658 -124 c-7
-3 -13 -11 -13 -19 0 -8 -7 -14 -15 -14 -12 0 -13 4 -5 19 10 20 31 32 40 23
3 -2 -1 -7 -7 -9z m174 -43 c1 -11 -2 -22 -8 -25 -5 -4 -9 5 -9 19 0 30 15 35
17 6z m-98 -24 c-3 -3 -11 5 -18 17 -13 21 -12 21 5 5 10 -10 16 -20 13 -22z
m-21 -6 c7 -11 19 -20 27 -20 17 0 20 -16 5 -25 -5 -3 -10 -15 -10 -27 0 -18
-2 -19 -17 -7 -15 13 -16 11 -10 -13 4 -15 3 -30 -3 -33 -10 -6 -15 20 -11 68
1 15 -3 27 -8 27 -6 0 -11 -8 -11 -17 0 -13 -3 -14 -12 -5 -9 9 -7 16 7 32 10
11 15 20 11 20 -4 0 -4 5 -1 10 9 15 19 12 33 -10z m-38 -4 c0 -11 -19 -15
-25 -6 -3 5 1 10 9 10 9 0 16 -2 16 -4z m807 -23 c-1 -20 2 -27 13 -25 9 2 2
-10 -14 -27 -25 -26 -28 -33 -16 -44 9 -8 11 -8 6 0 -3 6 -2 14 3 17 5 4 8 -2
7 -11 -2 -9 -8 -19 -13 -20 -19 -7 -25 16 -15 50 6 17 13 44 16 60 4 15 8 27
11 27 2 0 3 -12 2 -27z m104 -57 c-6 -7 -9 -20 -5 -29 7 -18 -22 -77 -37 -77
-7 0 -6 6 2 16 12 15 11 16 -9 10 -18 -6 -22 -4 -22 12 0 15 5 19 20 15 15 -4
21 1 26 23 9 37 13 44 26 44 7 0 7 -5 -1 -14z m-292 -38 c-1 -31 -1 -31 -8 -8
-5 14 -6 28 -4 33 9 15 13 6 12 -25z m-572 -40 c-3 -8 -6 -5 -6 6 -1 11 2 17
5 13 3 -3 4 -12 1 -19z m-20 -10 c-3 -8 -6 -5 -6 6 -1 11 2 17 5 13 3 -3 4
-12 1 -19z m783 12 c0 -5 -5 -10 -11 -10 -5 0 -7 5 -4 10 3 6 8 10 11 10 2 0
4 -4 4 -10z m-840 -140 c5 -19 6 -29 1 -24 -10 10 -26 72 -17 63 4 -4 11 -21
16 -39z m657 -72 c-3 -7 -5 -2 -5 12 0 14 2 19 5 13 2 -7 2 -19 0 -25z m-665
-220 c-7 -7 -12 -8 -12 -2 0 14 12 26 19 19 2 -3 -1 -11 -7 -17z m378 -138 c0
-5 -2 -10 -4 -10 -3 0 -8 5 -11 10 -3 6 -1 10 4 10 6 0 11 -4 11 -10z m615
-40 c3 -5 1 -10 -4 -10 -6 0 -11 5 -11 10 0 6 2 10 4 10 3 0 8 -4 11 -10z
m-1198 -47 c-3 -10 -5 -4 -5 12 0 17 2 24 5 18 2 -7 2 -21 0 -30z m1168 27
c-3 -5 -12 -7 -20 -3 -21 7 -19 13 6 13 11 0 18 -4 14 -10z m-670 -60 c-3 -5
-13 -10 -20 -10 -9 0 -12 -6 -8 -16 5 -14 3 -15 -16 -4 -18 9 -20 14 -10 26
13 16 64 20 54 4z m-69 -21 c3 -6 1 -16 -5 -22 -8 -8 -11 -7 -11 5 0 9 -6 19
-12 21 -8 3 -7 6 4 6 9 1 20 -4 24 -10z"/>
<path d="M1750 1540 c-25 -4 -48 -6 -52 -3 -5 2 -8 -1 -8 -6 0 -6 -9 -11 -19
-11 -11 0 -23 -5 -27 -12 -5 -8 -2 -9 9 -5 10 4 17 2 17 -5 0 -7 4 -7 13 1 8
6 33 9 56 7 42 -4 70 -16 38 -16 -9 0 -17 -4 -17 -10 0 -5 5 -10 10 -10 6 0
10 -7 10 -15 0 -11 -12 -15 -42 -16 -37 0 -40 -2 -20 -10 16 -6 34 -4 57 5 18
8 37 11 41 6 5 -4 19 -11 31 -15 18 -5 22 -3 17 9 -5 12 1 14 30 9 29 -4 36
-2 36 11 0 9 5 16 10 16 6 0 5 6 -2 14 -14 15 -43 2 -32 -15 3 -5 0 -9 -6 -9
-6 0 -13 7 -16 15 -4 8 -19 15 -34 15 -16 0 -32 5 -35 10 -3 6 1 10 9 10 22 0
20 17 -3 30 -11 5 -21 9 -23 9 -2 -1 -23 -5 -48 -9z"/>
<path d="M505 1526 c-11 -6 -22 -12 -23 -13 -2 -1 1 -10 8 -20 10 -16 11 -16
6 0 -4 13 0 17 19 17 14 0 25 4 25 9 0 16 -14 19 -35 7z"/>
<path d="M1903 1533 c9 -2 23 -2 30 0 6 3 -1 5 -18 5 -16 0 -22 -2 -12 -5z"/>
<path d="M550 1522 c0 -15 11 -21 27 -15 12 5 12 7 1 14 -17 11 -28 11 -28 1z"/>
<path d="M1998 1501 c-25 -25 -22 -30 9 -22 14 4 27 15 29 24 3 22 -16 21 -38
-2z"/>
<path d="M208 1493 c-7 -32 4 -61 24 -66 17 -5 19 -2 13 16 -4 12 -9 32 -12
45 -6 26 -20 29 -25 5z"/>
<path d="M440 1484 c0 -17 22 -14 28 4 2 7 -3 12 -12 12 -9 0 -16 -7 -16 -16z"/>
<path d="M321 1428 c-22 -17 -22 -18 -5 -25 11 -3 22 -10 25 -15 6 -9 49 27
49 41 0 18 -48 17 -69 -1z"/>
<path d="M1827 1413 c-4 -3 2 -16 12 -27 19 -20 24 -61 22 -168 -1 -41 -17
-52 -23 -15 -2 12 -6 1 -9 -26 -3 -36 -1 -46 9 -42 9 3 12 -1 9 -13 -3 -9 -8
-29 -11 -44 -3 -15 -15 -30 -26 -33 -13 -4 -23 -19 -27 -36 -3 -16 -10 -32
-14 -35 -17 -10 -9 -22 10 -17 11 3 22 16 25 29 4 13 10 24 15 24 5 0 7 -8 4
-19 -6 -23 16 -38 29 -20 7 10 11 11 14 2 3 -7 12 -9 21 -6 11 4 14 2 9 -5 -4
-7 6 -13 29 -18 l35 -6 0 -62 c0 -58 -1 -60 -15 -36 -8 14 -19 35 -24 48 -12
25 -26 28 -38 7 -8 -13 -12 -13 -37 0 -16 9 -31 13 -34 11 -2 -3 -13 5 -23 17
-10 12 -18 17 -19 11 0 -6 7 -17 15 -24 8 -7 12 -17 8 -23 -4 -6 -1 -7 7 -2
10 6 11 0 7 -26 -3 -23 1 -44 14 -64 15 -25 16 -38 8 -74 -12 -53 -5 -76 21
-78 23 -2 27 12 5 21 -13 5 -13 9 -3 25 15 25 23 18 24 -22 2 -64 24 -109 37
-74 3 9 9 9 24 0 15 -8 24 -8 31 -1 6 6 27 12 47 14 33 2 39 -1 48 -27 7 -17
19 -29 29 -29 11 0 18 -7 18 -20 0 -22 15 -27 23 -7 4 8 8 9 14 2 15 -20 37
-10 45 20 10 33 2 180 -12 235 -16 63 -42 130 -51 130 -4 0 -11 -5 -15 -11 -9
-14 -33 27 -34 57 0 35 -32 116 -53 137 -20 20 -20 20 -36 1 -9 -11 -23 -23
-31 -26 -13 -5 -15 10 -17 91 -3 113 -13 157 -36 155 -15 -1 -41 48 -31 58 2
3 -7 14 -19 26 -13 12 -27 19 -30 15z m60 -190 c-4 -3 -2 -12 4 -20 9 -10 8
-13 -5 -13 -9 0 -16 8 -16 20 0 11 5 20 12 20 6 0 8 -3 5 -7z m1 -65 c-4 -27
-28 -36 -28 -10 0 20 8 32 22 32 5 0 8 -10 6 -22z m12 -72 c0 -14 -4 -27 -10
-31 -5 -3 -8 7 -7 25 2 36 17 41 17 6z m-30 -52 c0 -2 -7 -4 -15 -4 -8 0 -15
4 -15 10 0 5 7 7 15 4 8 -4 15 -8 15 -10z m17 -41 c-3 -10 -5 -4 -5 12 0 17 2
24 5 18 2 -7 2 -21 0 -30z m-18 -246 c0 -27 -2 -29 -9 -12 -12 28 -12 57 0 50
6 -3 10 -21 9 -38z"/>
<path d="M616 1394 c-9 -8 -24 -13 -33 -10 -26 7 -69 -49 -53 -68 16 -20 -5
-50 -47 -67 -18 -7 -33 -19 -33 -26 0 -7 -4 -13 -9 -13 -12 0 -28 -50 -23 -72
2 -10 8 -18 13 -18 5 0 9 -5 9 -11 0 -5 -4 -7 -10 -4 -5 3 -10 1 -10 -4 0 -6
4 -11 9 -11 6 0 6 -12 1 -30 -6 -19 -5 -30 1 -30 7 0 8 -12 4 -31 -5 -20 -3
-29 3 -25 5 3 10 -5 10 -19 0 -14 -5 -25 -10 -25 -6 0 -5 -7 2 -15 11 -13 10
-14 -2 -10 -12 5 -17 -2 -20 -29 -2 -19 0 -32 4 -30 4 3 8 -4 8 -15 0 -12 -4
-21 -10 -21 -5 0 -10 -24 -9 -52 0 -44 2 -49 10 -29 6 15 14 21 25 17 10 -4
13 -2 7 6 -10 17 -4 81 9 93 7 7 9 -2 6 -27 -2 -20 -1 -35 3 -32 4 2 10 -2 12
-8 3 -7 6 -3 6 9 1 16 6 21 16 17 11 -5 15 1 15 19 0 35 -10 57 -25 57 -14 0
-30 28 -26 45 2 6 3 21 3 33 0 17 5 22 18 19 11 -3 20 5 27 24 13 33 4 39 -15
9 -7 -11 -17 -20 -22 -20 -11 0 -14 33 -3 44 4 3 8 13 9 20 4 30 16 56 25 56
5 0 9 19 9 43 0 51 49 180 79 210 22 22 22 22 36 3 8 -11 18 -17 21 -13 4 4 1
14 -7 23 -13 16 -12 16 6 7 25 -12 34 -11 60 5 17 10 15 11 -17 7 -21 -2 -40
0 -43 5 -9 14 -21 12 -39 -6z m-109 -246 c-3 -8 -6 -5 -6 6 -1 11 2 17 5 13 3
-3 4 -12 1 -19z"/>
<path d="M1735 1180 c-3 -5 -1 -10 4 -10 6 0 11 5 11 10 0 6 -2 10 -4 10 -3 0
-8 -4 -11 -10z"/>
<path d="M37 1173 c-4 -3 -7 -13 -7 -22 0 -14 2 -14 11 -1 9 12 10 11 6 -8 -3
-14 1 -25 11 -31 9 -5 14 -13 10 -17 -4 -4 -14 -1 -22 5 -10 8 -16 9 -21 1 -3
-6 -11 -8 -16 -5 -5 4 -9 -11 -9 -33 0 -27 5 -42 16 -46 23 -9 24 -8 24 15 0
18 4 20 25 15 20 -5 27 -1 40 25 18 34 14 69 -11 93 -16 16 -46 21 -57 9z m67
-78 c-4 -8 -11 -15 -16 -15 -6 0 -5 6 2 15 7 8 14 15 16 15 2 0 1 -7 -2 -15z"/>
<path d="M1720 1145 c-10 -13 -9 -15 9 -15 27 0 27 -7 -1 -31 l-23 -20 25 7
c33 9 33 8 25 43 -7 34 -16 38 -35 16z"/>
<path d="M343 1114 c-9 -24 18 -36 34 -16 9 13 12 14 13 3 0 -8 3 -11 6 -8 9
9 -15 37 -33 37 -7 0 -16 -7 -20 -16z"/>
<path d="M620 1110 c0 -5 5 -10 11 -10 5 0 7 5 4 10 -3 6 -8 10 -11 10 -2 0
-4 -4 -4 -10z"/>
<path d="M142 1090 c-7 -12 -8 -20 -2 -20 5 0 10 5 10 11 0 6 7 8 16 5 14 -5
15 -4 4 9 -15 18 -13 19 -28 -5z"/>
<path d="M228 1075 c-3 -13 -2 -22 2 -20 11 7 20 45 10 45 -4 0 -10 -11 -12
-25z"/>
<path d="M502 1070 c0 -14 2 -19 5 -12 2 6 2 18 0 25 -3 6 -5 1 -5 -13z"/>
<path d="M382 1055 c0 -16 2 -22 5 -12 2 9 2 23 0 30 -3 6 -5 -1 -5 -18z"/>
<path d="M160 1066 c0 -2 8 -10 18 -17 15 -13 16 -12 3 4 -13 16 -21 21 -21
13z"/>
<path d="M280 1033 c0 -13 5 -23 10 -23 13 0 13 11 0 30 -8 12 -10 11 -10 -7z"/>
<path d="M2454 1042 c4 -7 3 -12 -3 -12 -6 0 -7 -7 -4 -17 4 -11 3 -14 -5 -9
-7 4 -12 14 -12 22 0 10 -4 12 -12 7 -7 -4 -24 -9 -38 -11 -58 -6 -60 -6 -50
-16 16 -16 11 -30 -6 -16 -12 11 -15 11 -12 0 2 -7 -3 -15 -10 -17 -7 -3 -11
1 -10 9 2 7 -3 13 -9 13 -7 0 -13 -4 -12 -8 0 -5 -8 -16 -18 -25 -10 -9 -18
-24 -18 -32 1 -8 -3 -21 -8 -28 -12 -15 -8 -19 23 -25 37 -8 60 -18 60 -28 0
-5 -4 -9 -10 -9 -5 0 -10 -4 -10 -10 0 -5 11 -10 25 -10 15 0 23 -5 20 -12 -6
-16 21 -52 33 -45 4 4 22 -1 37 -9 28 -15 30 -14 55 14 14 16 33 32 43 35 22
8 38 48 25 64 -7 9 -16 10 -28 3 -13 -7 -21 -5 -30 5 -9 11 -8 14 7 14 56 -1
96 20 86 46 -2 7 4 20 13 30 17 16 17 18 1 30 -13 9 -14 14 -4 25 8 8 8 11 1
7 -7 -4 -15 0 -18 9 -5 14 -11 12 -41 -10 -35 -27 -59 -28 -49 -2 3 8 0 17 -7
22 -8 4 -10 3 -5 -4z m-61 -65 c-3 -4 -6 -7 -7 -5 -1 2 -8 12 -16 22 -14 18
-14 18 7 6 12 -8 19 -18 16 -23z m75 -7 c7 0 11 -4 7 -10 -3 -6 -15 -6 -29 0
-13 5 -27 6 -30 3 -3 -4 -6 -1 -6 6 0 9 8 11 23 7 12 -3 28 -6 35 -6z m-154
-34 c-3 -9 -10 -16 -15 -16 -6 0 -5 9 1 21 13 24 24 20 14 -5z m-44 -16 c0 -5
-4 -10 -9 -10 -6 0 -13 5 -16 10 -3 6 1 10 9 10 9 0 16 -4 16 -10z m160 -26
c6 -14 10 -34 10 -45 0 -21 0 -21 -33 0 l-33 20 -23 -22 c-17 -17 -21 -18 -15
-4 3 9 10 17 15 17 5 0 9 9 9 20 0 16 5 19 26 16 19 -4 24 -1 20 10 -3 7 -1
14 5 14 5 0 14 -12 19 -26z"/>
<path d="M1710 1027 c-14 -6 -28 -15 -31 -20 -3 -4 -10 -7 -15 -6 -5 2 -18 0
-29 -4 -17 -6 -20 -14 -17 -42 6 -48 16 -51 20 -7 1 20 7 41 13 47 7 7 8 5 4
-7 -10 -24 11 -23 32 2 10 11 32 23 50 26 18 3 33 10 33 15 0 12 -30 10 -60
-4z"/>
<path d="M370 1008 c0 -8 -10 -23 -21 -34 -22 -19 -22 -19 -11 2 9 17 8 21 -5
21 -12 0 -14 -8 -9 -38 3 -21 2 -40 -3 -43 -5 -3 -8 -22 -6 -41 2 -20 -3 -48
-11 -63 -14 -27 -18 -24 -14 12 1 10 -1 29 -4 42 -5 20 -10 23 -26 14 -28 -15
-30 -13 -30 21 0 20 -4 29 -12 26 -8 -2 -12 -16 -10 -34 3 -25 -2 -32 -29 -46
-23 -11 -38 -13 -51 -6 -15 8 -22 3 -39 -26 -14 -24 -28 -35 -44 -35 -30 0
-52 -25 -32 -37 8 -4 16 -14 19 -22 5 -16 67 -22 86 -8 6 5 12 18 12 29 0 11
7 26 15 35 14 14 15 13 10 -10 -7 -28 1 -67 15 -67 4 0 6 19 3 43 -7 50 -4 48
31 -18 19 -37 26 -44 26 -27 0 31 24 38 54 15 23 -16 26 -24 24 -67 -3 -52
-22 -72 -33 -35 -7 20 -8 20 -17 5 -5 -9 -11 -37 -14 -62 -2 -25 -6 -50 -10
-55 -3 -5 23 -9 60 -9 l66 0 0 158 c1 86 5 204 10 262 4 58 6 107 4 109 -2 2
-4 -2 -4 -11z m-106 -233 c-4 -8 -10 -15 -15 -15 -11 0 -12 31 -2 56 6 15 7
15 14 -4 5 -12 6 -29 3 -37z m83 -7 c-2 -13 -4 -5 -4 17 -1 22 1 32 4 23 2
-10 2 -28 0 -40z m-23 -223 c4 -13 2 -14 -14 -5 -23 13 -26 20 -6 20 8 0 16
-7 20 -15z"/>
<path d="M127 986 c-3 -7 -1 -18 4 -23 7 -7 4 -12 -10 -16 -13 -3 -18 -1 -15
8 3 7 1 16 -4 19 -16 10 -22 -22 -6 -34 8 -7 14 -19 14 -27 0 -21 41 -12 54
12 6 11 14 22 18 25 11 8 -20 50 -36 50 -8 0 -16 -6 -19 -14z"/>
<path d="M1720 993 c0 -5 4 -13 8 -20 6 -9 11 -7 20 7 11 17 10 20 -8 20 -11
0 -20 -3 -20 -7z"/>
<path d="M7 964 c-4 -4 -7 -31 -7 -61 0 -52 1 -53 22 -42 16 9 23 9 26 0 6
-17 26 -13 39 9 15 23 8 28 -34 25 -34 -2 -44 9 -18 19 8 3 15 13 15 21 0 9
-4 14 -9 10 -6 -3 -14 2 -18 10 -5 9 -12 12 -16 9z"/>
<path d="M170 870 c-8 -5 -12 -11 -9 -14 3 -3 14 1 25 9 21 16 8 20 -16 5z"/>
<path d="M1746 867 c3 -10 9 -15 12 -12 3 3 0 11 -7 18 -10 9 -11 8 -5 -6z"/>
<path d="M593 817 c-2 -28 -5 -72 -8 -97 -4 -38 -3 -41 6 -20 6 14 12 39 13
55 2 17 4 35 6 40 1 6 2 25 1 43 -2 52 -16 37 -18 -21z"/>
<path d="M1773 837 c-1 -26 0 -28 7 -12 11 26 12 45 3 45 -5 0 -9 -15 -10 -33z"/>
<path d="M1690 840 c0 -5 5 -10 10 -10 6 0 10 5 10 10 0 6 -4 10 -10 10 -5 0
-10 -4 -10 -10z"/>
<path d="M0 830 c0 -5 5 -10 10 -10 6 0 10 5 10 10 0 6 -4 10 -10 10 -5 0 -10
-4 -10 -10z"/>
<path d="M1617 816 c-6 -15 1 -26 15 -26 4 0 8 9 8 20 0 23 -15 27 -23 6z"/>
<path d="M1640 780 c-8 -5 -12 -11 -9 -14 3 -3 14 1 25 9 21 16 8 20 -16 5z"/>
<path d="M1590 759 c0 -5 5 -7 10 -4 6 3 10 8 10 11 0 2 -4 4 -10 4 -5 0 -10
-5 -10 -11z"/>
<path d="M470 733 c0 -13 2 -23 4 -23 14 0 36 14 36 22 0 5 -5 6 -11 2 -6 -3
-15 0 -20 7 -6 10 -9 8 -9 -8z"/>
<path d="M135 710 c3 -5 8 -10 11 -10 2 0 4 5 4 10 0 6 -5 10 -11 10 -5 0 -7
-4 -4 -10z"/>
<path d="M253 713 c-7 -3 -13 -12 -13 -21 0 -15 2 -15 17 1 18 18 16 27 -4 20z"/>
<path d="M1584 694 c3 -9 6 -29 6 -45 0 -18 4 -28 10 -24 6 3 10 24 10 46 0
29 -4 39 -16 39 -11 0 -14 -5 -10 -16z"/>
<path d="M271 654 c0 -11 3 -14 6 -6 3 7 2 16 -1 19 -3 4 -6 -2 -5 -13z"/>
<path d="M102 631 c-24 -20 -28 -31 -12 -31 6 0 28 -11 50 -25 48 -30 62 -32
32 -5 -24 23 -27 35 -11 45 6 5 4 12 -8 21 -24 18 -26 17 -51 -5z"/>
<path d="M1595 600 c-3 -5 -1 -10 4 -10 6 0 11 5 11 10 0 6 -2 10 -4 10 -3 0
-8 -4 -11 -10z"/>
<path d="M820 495 c-8 -9 -8 -15 -2 -15 12 0 26 19 19 26 -2 2 -10 -2 -17 -11z"/>
<path d="M1510 470 c0 -5 5 -10 10 -10 6 0 10 5 10 10 0 6 -4 10 -10 10 -5 0
-10 -4 -10 -10z"/>
<path d="M815 460 c-3 -5 -1 -10 4 -10 6 0 11 5 11 10 0 6 -2 10 -4 10 -3 0
-8 -4 -11 -10z"/>
<path d="M1472 341 c-10 -6 -8 -13 8 -32 19 -20 21 -21 15 -4 -4 11 -8 26 -8
33 0 6 -1 12 -1 12 -1 0 -7 -4 -14 -9z"/>
<path d="M1410 330 c0 -5 4 -10 9 -10 6 0 13 5 16 10 3 6 -1 10 -9 10 -9 0
-16 -4 -16 -10z"/>
</g>
</svg>
